<?xml version="1.0" encoding="UTF-8"?>
<svg width="24px" height="24px" viewBox="0 0 24 24" version="1.1" xmlns="http://www.w3.org/2000/svg">
    <g stroke="none" stroke-width="1" fill="none" fill-rule="evenodd">
        <path d="M12,17 C9.23857625,17 7,14.7614237 7,12 C7,9.23857625 9.23857625,7 12,7 C14.7614237,7 17,9.23857625 17,12 C17,14.7614237 14.7614237,17 12,17 Z M12,15 C13.6568542,15 15,13.6568542 15,12 C15,10.3431458 13.6568542,9 12,9 C10.3431458,9 9,10.3431458 9,12 C9,13.6568542 10.3431458,15 12,15 Z" fill="#4CAF50" fill-rule="nonzero"/>
        <path d="M3,9 C3,7.8954305 3.8954305,7 5,7 L5.5,7 C6.32842712,7 7,6.32842712 7,5.5 L7,5 C7,3.8954305 7.8954305,3 9,3 L15,3 C16.1045695,3 17,3.8954305 17,5 L17,5.5 C17,6.32842712 17.6715729,7 18.5,7 L19,7 C20.1045695,7 21,7.8954305 21,9 L21,17 C21,18.1045695 20.1045695,19 19,19 L5,19 C3.8954305,19 3,18.1045695 3,17 L3,9 Z" stroke="#4CAF50" stroke-width="2"/>
    </g>
</svg> 